<?xml version="1.0" standalone="no"?>
<!DOCTYPE svg PUBLIC "-//W3C//DTD SVG 20010904//EN"
 "http://www.w3.org/TR/2001/REC-SVG-20010904/DTD/svg10.dtd">
<svg version="1.0" xmlns="http://www.w3.org/2000/svg"
 width="1001.000000pt" height="1001.000000pt" viewBox="0 0 1001.000000 1001.000000"
 preserveAspectRatio="xMidYMid meet">
<metadata>
Created by potrace 1.14, written by Peter Selinger 2001-2017
</metadata>
<g transform="translate(0.000000,1001.000000) scale(0.100000,-0.100000)"
fill="#000000" stroke="none">
<path d="M4897 10004 c-1 -1 -67 -5 -147 -8 -80 -3 -156 -8 -170 -10 -14 -3
-57 -7 -95 -10 -39 -4 -81 -8 -95 -10 -28 -5 -111 -16 -152 -21 -15 -2 -55 -9
-90 -16 -35 -6 -76 -13 -93 -15 -16 -2 -38 -7 -47 -10 -10 -3 -30 -7 -45 -10
-164 -29 -578 -154 -803 -244 -229 -91 -481 -215 -719 -355 -74 -44 -177 -110
-179 -117 -2 -4 -10 -8 -18 -8 -8 0 -14 -4 -14 -10 0 -5 -5 -10 -10 -10 -13 0
-227 -155 -340 -246 -164 -133 -231 -193 -415 -378 -173 -173 -287 -303 -408
-461 -42 -55 -80 -104 -85 -110 -36 -43 -181 -264 -259 -393 -96 -159 -293
-544 -293 -573 0 -8 -4 -19 -9 -25 -26 -26 -171 -437 -226 -638 -26 -98 -89
-376 -100 -441 -5 -35 -20 -137 -41 -275 -3 -25 -7 -58 -9 -75 -5 -67 -18
-223 -21 -265 -4 -67 -4 -435 0 -510 10 -176 19 -286 22 -291 1 -3 6 -30 9
-60 13 -127 12 -119 30 -224 1 -11 10 -60 20 -110 9 -49 19 -101 21 -115 18
-96 93 -370 154 -560 14 -44 80 -224 89 -245 5 -11 28 -65 51 -120 57 -136
192 -403 280 -555 557 -953 1428 -1706 2452 -2119 195 -78 485 -172 688 -222
104 -25 108 -26 156 -33 22 -4 55 -11 74 -16 19 -5 55 -11 80 -14 25 -3 56 -8
70 -11 13 -2 42 -7 65 -10 22 -4 51 -8 65 -10 14 -2 48 -6 75 -9 28 -3 70 -8
95 -11 220 -26 867 -26 1002 0 13 3 57 8 98 11 41 3 77 7 80 9 3 2 29 6 59 10
30 4 63 9 75 11 12 2 35 6 51 9 17 3 41 8 55 10 14 3 36 7 50 10 503 94 1064
304 1520 568 217 126 579 378 714 497 276 243 370 336 566 555 337 377 664
908 865 1405 82 202 197 562 230 716 2 11 10 48 19 84 8 36 18 81 21 100 3 19
10 53 15 75 4 22 11 60 14 85 3 25 8 54 10 65 5 26 14 98 21 160 3 28 8 64 10
80 20 150 28 711 13 896 -72 871 -341 1656 -813 2374 -78 118 -203 291 -273
377 -105 129 -233 270 -361 398 -169 168 -237 230 -386 353 -341 280 -791 551
-1218 731 -189 80 -547 201 -685 231 -12 3 -30 7 -39 9 -153 37 -313 71 -388
82 -11 1 -56 8 -100 14 -44 6 -91 13 -105 15 -14 2 -56 7 -95 10 -38 4 -83 9
-100 11 -59 8 -532 23 -538 18z"/>
</g>
</svg>
