<svg id="Layer_1" data-name="Layer 1" xmlns="http://www.w3.org/2000/svg" viewBox="0 0 2600 1950"><defs><style>.cls-1{fill:#8962af;}.cls-2{fill:#8f47b5;}.cls-3{fill:#b080d6;}.cls-4{fill:#54217c;}</style></defs><rect class="cls-1" width="2600" height="1952.44"/><circle class="cls-2" cx="2354.24" cy="865.53" r="348.97"/><circle class="cls-2" cx="643.93" cy="302.64" r="348.97"/><circle class="cls-2" cx="1923.82" cy="1757.79" r="348.97"/><circle class="cls-3" cx="183.1" cy="568.1" r="348.97"/><circle class="cls-4" cx="1764.74" cy="993.04" r="435.37"/><circle class="cls-3" cx="1368.67" cy="241.81" r="206.19"/><circle class="cls-4" cx="1151.4" cy="1503.93" r="240.98"/><circle class="cls-4" cx="549.6" cy="688.92" r="348.97"/><circle class="cls-4" cx="2468.67" cy="1719.65" r="348.97"/><circle class="cls-4" cx="200.63" cy="1695.94" r="348.97"/><circle class="cls-4" cx="2294.7" cy="407.28" r="240.98"/><circle class="cls-4" cx="1774.86" cy="255.73" r="240.98"/><circle class="cls-4" cx="1206.81" cy="899.03" r="240.98"/><circle class="cls-3" cx="1865.06" cy="1428.41" r="206.19"/><circle class="cls-3" cx="704.24" cy="1165.01" r="206.19"/><circle class="cls-3" cx="639.55" cy="1796.71" r="263.66"/><circle class="cls-3" cx="2438.52" cy="1261.4" r="246.13"/><circle class="cls-2" cx="1495.99" cy="1408.82" r="236.08"/><circle class="cls-2" cx="2484.13" cy="199.03" r="264.43"/><circle class="cls-4" cx="175.89" cy="114.49" r="240.98"/><circle class="cls-4" cx="89.29" cy="1020.42" r="240.98"/><circle class="cls-4" cx="1001.66" cy="98.97" r="240.98"/><circle class="cls-2" cx="381.04" cy="1151.61" r="234.54"/><circle class="cls-2" cx="2031.04" cy="488.21" r="207.22"/><circle class="cls-4" cx="1468.67" cy="1796.71" r="240.98"/><circle class="cls-4" cx="2097.54" cy="1324.55" r="240.98"/><circle class="cls-2" cx="49.08" cy="1319.65" r="236.08"/><circle class="cls-2" cx="1054.24" cy="473.26" r="236.08"/><circle class="cls-3" cx="1339.8" cy="601.09" r="206.19"/><circle class="cls-3" cx="532.07" cy="1455.47" r="206.19"/><circle class="cls-4" cx="767.9" cy="1370.68" r="240.98"/><circle class="cls-4" cx="2609.91" cy="651.61" r="240.98"/><circle class="cls-2" cx="1658.88" cy="473.26" r="207.22"/><circle class="cls-2" cx="903.21" cy="849.55" r="207.22"/><circle class="cls-3" cx="1162.48" cy="1828.93" r="206.19"/><circle class="cls-2" cx="875.63" cy="1757.79" r="236.08"/><circle class="cls-2" cx="1890.32" cy="892.59" r="207.22"/><circle class="cls-4" cx="1058.62" cy="1158.05" r="240.98"/><circle class="cls-2" cx="1222.28" cy="1222.23" r="207.22"/><circle class="cls-3" cx="1417.24" cy="1129.7" r="206.19"/><circle class="cls-4" cx="428.46" cy="-41.95" r="240.98"/><circle class="cls-4" cx="2141.87" cy="92.85" r="240.98"/><circle class="cls-2" cx="1401.92" cy="48.52" r="207.22"/><circle class="cls-3" cx="1757.33" cy="74.8" r="206.19"/></svg>