<svg id="Layer_1" data-name="Layer 1" xmlns="http://www.w3.org/2000/svg" xmlns:xlink="http://www.w3.org/1999/xlink" viewBox="0 0 300 400"><defs><style>.cls-1{fill:#23182d;}.cls-2{fill:#f4f4f4;}.cls-3,.cls-6{fill:#2e2ad8;}.cls-3{opacity:0.25;}.cls-4{fill:#4e4bf7;}.cls-5{fill:#7575ef;}.cls-7{opacity:0.2;}.cls-8{fill:url(#radial-gradient);}.cls-9{fill:url(#radial-gradient-2);}</style><radialGradient id="radial-gradient" cx="150" cy="200" r="95.78" gradientUnits="userSpaceOnUse"><stop offset="0" stop-color="#759bef"/><stop offset="0.2" stop-color="#7397ed"/><stop offset="0.39" stop-color="#6c8ce6"/><stop offset="0.57" stop-color="#6079db"/><stop offset="0.74" stop-color="#4f5ecb"/><stop offset="0.92" stop-color="#3a3db6"/><stop offset="1" stop-color="#2e2aab"/></radialGradient><radialGradient id="radial-gradient-2" cx="150" cy="200" r="95.78" gradientUnits="userSpaceOnUse"><stop offset="0" stop-color="#fbffef"/><stop offset="0.15" stop-color="#f7fbec"/><stop offset="0.29" stop-color="#edf0e3"/><stop offset="0.42" stop-color="#daddd3"/><stop offset="0.55" stop-color="#c1c2bd"/><stop offset="0.68" stop-color="#a0a0a1"/><stop offset="0.81" stop-color="#77767e"/><stop offset="0.94" stop-color="#484556"/><stop offset="1" stop-color="#2e2a40"/></radialGradient></defs><rect class="cls-1" width="300" height="400"/><circle class="cls-2" cx="32.1" cy="30.56" r="4.86"/><circle class="cls-2" cx="201.12" cy="108.64" r="4.86"/><circle class="cls-2" cx="81.41" cy="323.51" r="4.86"/><circle class="cls-2" cx="256.69" cy="363.37" r="4.86"/><circle class="cls-2" cx="231.22" cy="38.91" r="4.86"/><circle class="cls-2" cx="34.68" cy="137.96" r="4.86"/><circle class="cls-2" cx="122.98" cy="376.24" r="4.86"/><circle class="cls-2" cx="20.7" cy="342.61" r="3.17"/><circle class="cls-2" cx="114.96" cy="97.47" r="3.17"/><circle class="cls-2" cx="138.01" cy="43.76" r="3.17"/><circle class="cls-2" cx="237.77" cy="95.2" r="3.17"/><circle class="cls-2" cx="267.28" cy="210.49" r="3.17"/><circle class="cls-2" cx="221.87" cy="376.24" r="3.17"/><circle class="cls-2" cx="155.53" cy="351.52" r="3.17"/><circle class="cls-2" cx="43.01" cy="253.63" r="3.17"/><circle class="cls-3" cx="150" cy="200" r="111.78"/><circle class="cls-3" cx="150" cy="200" r="104.73"/><circle id="bkg" class="cls-4" cx="150" cy="200" r="95.78"/><ellipse class="cls-5" cx="193.44" cy="144.71" rx="11.92" ry="11.97" transform="translate(-46.44 116.11) rotate(-30)"/><path class="cls-6" d="M143.93,126.25c19.8,7.45,23.33,20.61,18.65,35.6a28.11,28.11,0,0,1-1.61,4,28.42,28.42,0,1,1-42,37.67,28.36,28.36,0,0,1-18.47.52c-15-4.68-12.55-31.5-7.87-46.48C96.28,146,124.12,118.79,143.93,126.25Z"/><path class="cls-5" d="M191.24,267.74a37.72,37.72,0,0,1-6.69,21.51l-.19.26a96.31,96.31,0,0,1-59.8,2.8,3.48,3.48,0,0,0-2.09-.6A95.73,95.73,0,0,1,54.41,200v-1.09A95.84,95.84,0,0,1,126,107.3c20.67.29,46.77,14.84,37.33,37.87s-41.63-5.88-58.4,6.45,16.25,12,14.78,31-29.42,9.88-25.38,23.76,19.43,8.46,30.24,13,11,9.93,16.79,18.6,18.87-8.09,28.9-4.14S191.24,252.88,191.24,267.74Z"/><path class="cls-6" d="M245.78,200a95.83,95.83,0,0,1-76.47,93.84A96.61,96.61,0,0,1,150,295.78q-3.7,0-7.33-.27a95.15,95.15,0,0,1-45-15.27A28.18,28.18,0,0,1,97,274.1a27.81,27.81,0,0,1,31.3-27.63c9.65,1.19,14.38,14.82,26.61,16.17s26.11-9.9,29.2-23.17a28.81,28.81,0,0,0,.57-3.26,31.76,31.76,0,0,0,.2-3.54c0-7.27-6.83-11.54-6.88-19.12s8.63-9.46,11.71-6.69,7.61,7.47,13.13,7.92c.46,0,.94.06,1.41.06a16.73,16.73,0,0,0,2-.12,17.25,17.25,0,0,0,15.23-17.13c0-.26,0-.51,0-.77s0-.55,0-.82c-.65-7.1-11.35-9.63-12.48-18.23S218.24,157,229.69,157a20.77,20.77,0,0,1,6.44,1,95.4,95.4,0,0,1,9.27,33.29C245.65,194.18,245.78,197.08,245.78,200Z"/><g id="bkg-2" data-name="bkg" class="cls-7"><circle class="cls-8" cx="150" cy="200" r="95.78"/></g><ellipse class="cls-4" cx="139.42" cy="179.42" rx="10.99" ry="18.89" transform="translate(-87.56 189.87) rotate(-54.79)"/><g id="bkg-3" data-name="bkg" class="cls-7"><circle class="cls-9" cx="150" cy="200" r="95.78"/></g></svg>